<svg width="186" height="187" viewBox="0 0 186 187" fill="none" xmlns="http://www.w3.org/2000/svg">
<path d="M179.293 105.949L166.258 104.739L166.4 103.212L177.294 97.0589L177.306 96.9316L167.071 95.9817L167.218 94.4032L180.253 95.613L180.111 97.1406L169.189 103.317L169.178 103.444L179.437 104.396L179.293 105.949Z" fill="#D1CABA"/>
<path d="M165.561 108.767L178.196 112.191L176.13 119.817L174.772 119.449L176.424 113.354L172.155 112.197L170.61 117.897L169.253 117.529L170.798 111.829L166.504 110.665L164.825 116.859L163.468 116.492L165.561 108.767Z" fill="#D1CABA"/>
<path d="M161.823 121.486L175.133 124.135L174.413 125.576L163.653 123.257L163.596 123.372L171.887 130.631L171.087 132.232L160.304 129.959L160.247 130.073L168.562 137.286L167.842 138.727L157.731 129.674L158.463 128.21L169.086 130.288L169.132 130.197L161.091 122.949L161.823 121.486Z" fill="#D1CABA"/>
<path d="M150.983 139.945L160.666 148.754L157.69 152.026C156.999 152.786 156.297 153.282 155.584 153.515C154.871 153.753 154.177 153.779 153.501 153.59C152.826 153.402 152.203 153.048 151.632 152.529C151.061 152.01 150.649 151.422 150.395 150.764C150.138 150.11 150.09 149.415 150.251 148.681C150.415 147.949 150.84 147.206 151.526 146.453L153.659 144.108L154.699 145.054L152.6 147.361C152.127 147.882 151.837 148.381 151.73 148.86C151.623 149.338 151.658 149.788 151.834 150.208C152.011 150.634 152.294 151.023 152.682 151.376C153.069 151.728 153.482 151.971 153.92 152.105C154.354 152.241 154.803 152.229 155.266 152.068C155.732 151.91 156.205 151.568 156.684 151.042L158.559 148.98L149.916 141.117L150.983 139.945Z" fill="#D1CABA"/>
<path d="M142.591 148.893L150.71 159.162L147.24 161.905C146.438 162.539 145.671 162.923 144.94 163.056C144.211 163.192 143.535 163.121 142.912 162.842C142.29 162.563 141.739 162.12 141.261 161.515C140.782 160.91 140.482 160.276 140.359 159.613C140.237 158.949 140.325 158.281 140.625 157.61C140.928 156.941 141.477 156.292 142.273 155.663L145.081 153.443L145.969 154.566L143.201 156.755C142.653 157.188 142.275 157.617 142.067 158.042C141.857 158.469 141.792 158.89 141.874 159.303C141.956 159.722 142.159 160.137 142.484 160.548C142.809 160.959 143.17 161.258 143.567 161.444C143.964 161.63 144.398 161.673 144.867 161.573C145.34 161.477 145.853 161.209 146.408 160.77L148.594 159.042L141.347 149.876L142.591 148.893ZM141.405 157.327L135.23 154.713L136.674 153.571L142.809 156.217L141.405 157.327Z" fill="#D1CABA"/>
<path d="M126.348 167.35C125.695 166.134 125.349 164.965 125.313 163.843C125.276 162.721 125.511 161.714 126.019 160.822C126.527 159.93 127.272 159.22 128.256 158.692C129.239 158.163 130.243 157.934 131.267 158.003C132.291 158.072 133.26 158.431 134.176 159.081C135.091 159.731 135.875 160.664 136.529 161.881C137.182 163.097 137.527 164.266 137.564 165.388C137.601 166.51 137.365 167.517 136.858 168.409C136.35 169.301 135.604 170.011 134.621 170.539C133.637 171.068 132.634 171.297 131.61 171.228C130.586 171.159 129.616 170.8 128.701 170.15C127.786 169.5 127.001 168.567 126.348 167.35ZM127.699 166.624C128.236 167.623 128.856 168.376 129.559 168.883C130.258 169.393 130.986 169.672 131.743 169.72C132.495 169.77 133.221 169.608 133.919 169.233C134.617 168.858 135.155 168.341 135.532 167.684C135.906 167.029 136.075 166.268 136.04 165.401C136.001 164.537 135.714 163.605 135.177 162.607C134.641 161.608 134.023 160.854 133.323 160.345C132.62 159.837 131.892 159.558 131.14 159.508C130.383 159.46 129.656 159.623 128.958 159.998C128.259 160.373 127.723 160.889 127.35 161.544C126.973 162.201 126.803 162.962 126.842 163.827C126.877 164.693 127.163 165.626 127.699 166.624Z" fill="#D1CABA"/>
<path d="M119.495 176.867L117.993 177.374L115.004 168.506C114.737 167.715 114.656 166.993 114.76 166.342C114.864 165.691 115.132 165.133 115.565 164.668C115.997 164.203 116.573 163.849 117.292 163.607C117.97 163.378 118.615 163.298 119.227 163.366C119.841 163.438 120.376 163.653 120.834 164.011C121.292 164.369 121.628 164.865 121.842 165.499L120.364 165.998C120.246 165.646 120.055 165.369 119.793 165.165C119.528 164.966 119.218 164.846 118.862 164.804C118.506 164.762 118.132 164.807 117.741 164.939C117.309 165.085 116.972 165.3 116.73 165.583C116.489 165.867 116.348 166.211 116.309 166.616C116.267 167.025 116.333 167.487 116.506 168L119.495 176.867Z" fill="#D1CABA"/>
<path d="M110.4 165.979L112.755 178.856L104.983 180.277L104.73 178.894L110.942 177.758L110.147 173.407L104.337 174.469L104.084 173.086L109.894 172.024L109.094 167.647L102.781 168.802L102.528 167.418L110.4 165.979Z" fill="#D1CABA"/>
<path d="M89.0315 177.037L90.6167 177.019C90.7157 177.474 90.8844 177.873 91.1227 178.215C91.3568 178.557 91.6414 178.844 91.9765 179.074C92.3074 179.309 92.6738 179.484 93.0757 179.599C93.4776 179.713 93.8959 179.768 94.3305 179.763C95.1231 179.754 95.8387 179.545 96.4775 179.137C97.1121 178.729 97.6144 178.133 97.9846 177.349C98.3506 176.565 98.527 175.606 98.5138 174.473C98.5007 173.339 98.3022 172.385 97.9182 171.61C97.5299 170.834 97.0139 170.25 96.3701 169.857C95.722 169.464 95.0017 169.272 94.2091 169.281C93.7745 169.286 93.3576 169.35 92.9584 169.474C92.5593 169.598 92.197 169.779 91.8716 170.018C91.542 170.26 91.2642 170.555 91.0381 170.903C90.8077 171.255 90.6483 171.658 90.5598 172.11L88.9747 172.129C89.0863 171.458 89.2966 170.857 89.6058 170.325C89.915 169.793 90.3019 169.339 90.7663 168.963C91.2308 168.591 91.7538 168.306 92.3353 168.107C92.9126 167.909 93.5315 167.806 94.1919 167.798C95.3083 167.785 96.3043 168.046 97.1799 168.582C98.0555 169.117 98.7484 169.885 99.2586 170.884C99.7688 171.884 100.032 173.075 100.048 174.455C100.064 175.836 99.8284 177.032 99.3415 178.043C98.8546 179.054 98.1796 179.838 97.3167 180.393C96.4538 180.949 95.4641 181.233 94.3477 181.246C93.6872 181.254 93.0661 181.165 92.4844 180.98C91.8984 180.795 91.3689 180.52 90.8959 180.155C90.4229 179.794 90.0257 179.351 89.7043 178.826C89.3829 178.305 89.1587 177.709 89.0315 177.037Z" fill="#D1CABA"/>
<path d="M83.5272 179.392L83.2902 180.778L73.6124 179.124L73.8494 177.737L77.907 178.431L79.8763 166.914L81.4389 167.181L79.4696 178.698L83.5272 179.392Z" fill="#D1CABA"/>
<path d="M63.5204 168.299L62.3688 170.867L65.1392 170.363L65.3044 171.588L62.4924 171.855L64.3245 174.005L63.3523 174.77L61.7156 172.478L60.7536 175.123L59.6162 174.662L60.7678 172.094L57.9973 172.599L57.8322 171.373L60.6442 171.106L58.8121 168.956L59.7842 168.191L61.421 170.483L62.383 167.838L63.5204 168.299Z" fill="#D1CABA"/>
<path d="M38.981 162.883L46.487 152.157L47.7439 153.037L47.6949 165.548L47.7997 165.622L53.6931 157.2L54.9918 158.109L47.4858 168.835L46.229 167.955L46.2716 155.408L46.1669 155.335L40.2588 163.777L38.981 162.883Z" fill="#D1CABA"/>
<path d="M43.3632 149.572L34.1403 158.862L28.5335 153.296L29.5242 152.298L34.006 156.747L37.1224 153.608L32.9309 149.447L33.9216 148.449L38.1131 152.61L41.2475 149.453L36.6931 144.932L37.6839 143.934L43.3632 149.572Z" fill="#D1CABA"/>
<path d="M34.1479 140.046L25.2855 150.324L24.3862 148.988L31.7044 140.765L31.6331 140.659L21.2315 144.3L20.2323 142.815L27.522 134.55L27.4507 134.444L17.0777 138.127L16.1784 136.79L29.0376 132.452L29.9512 133.809L22.9095 142.03L22.9666 142.115L33.2343 138.688L34.1479 140.046Z" fill="#D1CABA"/>
<path d="M23.4582 121.648L11.022 125.736L9.64067 121.534C9.31997 120.559 9.23391 119.703 9.38251 118.968C9.52573 118.23 9.84565 117.614 10.3423 117.119C10.8389 116.623 11.4536 116.255 12.1863 116.015C12.919 115.774 13.6342 115.705 14.3318 115.807C15.0281 115.906 15.6562 116.206 16.216 116.708C16.7718 117.212 17.2087 117.948 17.5268 118.915L18.5168 121.927L17.1809 122.366L16.2068 119.403C15.9873 118.735 15.6956 118.236 15.3317 117.907C14.9679 117.578 14.5597 117.387 14.1072 117.334C13.6492 117.279 13.1713 117.332 12.6734 117.496C12.1754 117.66 11.7607 117.899 11.4292 118.215C11.0964 118.526 10.8859 118.923 10.7977 119.405C10.7054 119.888 10.7703 120.468 10.9926 121.144L11.8629 123.791L22.9632 120.143L23.4582 121.648Z" fill="#D1CABA"/>
<path d="M19.836 110.102L6.90002 112.11L6.22143 107.739C6.06454 106.729 6.1084 105.872 6.35301 105.17C6.59342 104.469 6.98841 103.916 7.53799 103.511C8.08756 103.107 8.74343 102.845 9.50561 102.727C10.2678 102.609 10.9678 102.66 11.6057 102.88C12.2436 103.1 12.781 103.506 13.2179 104.098C13.6506 104.69 13.9448 105.488 14.1004 106.49L14.6495 110.027L13.2346 110.247L12.6933 106.76C12.5861 106.07 12.3988 105.53 12.1313 105.14C11.8631 104.746 11.529 104.483 11.1291 104.351C10.7242 104.215 10.2628 104.188 9.74488 104.268C9.22694 104.349 8.7893 104.516 8.43197 104.77C8.07464 105.024 7.82371 105.379 7.67919 105.837C7.53046 106.296 7.51036 106.875 7.61888 107.574L8.04643 110.328L19.5928 108.535L19.836 110.102ZM13.0796 104.915L18.3964 100.829L18.6788 102.648L13.3542 106.684L13.0796 104.915Z" fill="#D1CABA"/>
<path d="M11.7916 86.5349C13.1718 86.5722 14.3578 86.8537 15.3496 87.3792C16.3415 87.9048 17.0983 88.6094 17.62 89.4932C18.1418 90.3769 18.3876 91.3768 18.3575 92.4929C18.3273 93.609 18.0278 94.5941 17.4591 95.4484C16.8904 96.3027 16.0966 96.9654 15.0778 97.4366C14.059 97.9079 12.8596 98.1248 11.4794 98.0875C10.0992 98.0502 8.91319 97.7688 7.92134 97.2432C6.92949 96.7177 6.17269 96.013 5.65091 95.1293C5.12914 94.2455 4.88334 93.2456 4.9135 92.1296C4.94366 91.0135 5.24311 90.0283 5.81185 89.1741C6.38059 88.3198 7.17435 87.6571 8.19314 87.1858C9.21192 86.7146 10.4114 86.4976 11.7916 86.5349ZM11.7501 88.0685C10.617 88.0378 9.65558 88.2016 8.86579 88.5596C8.07611 88.9134 7.47237 89.4065 7.05457 90.0389C6.63688 90.6671 6.41733 91.3773 6.39591 92.1696C6.3745 92.962 6.55531 93.6851 6.93835 94.3392C7.32151 94.989 7.89773 95.514 8.66703 95.9142C9.43645 96.3101 10.3877 96.5234 11.5208 96.554C12.6539 96.5846 13.6153 96.423 14.405 96.0692C15.1948 95.7112 15.7985 95.2181 16.2162 94.5899C16.634 93.9575 16.8536 93.2452 16.875 92.4528C16.8965 91.6605 16.7156 90.9394 16.3324 90.2897C15.9494 89.6356 15.3732 89.1106 14.6037 88.7147C13.8344 88.3145 12.8832 88.0991 11.7501 88.0685Z" fill="#D1CABA"/>
<path d="M6.89326 75.7933L7.19621 74.2372L16.3817 76.0257C17.2015 76.1853 17.8686 76.4715 18.383 76.8842C18.8975 77.2969 19.2498 77.8062 19.4401 78.412C19.6304 79.0177 19.6531 79.6929 19.5081 80.4374C19.3713 81.1401 19.122 81.7406 18.7601 82.2389C18.3941 82.7364 17.9421 83.0955 17.4042 83.3164C16.8663 83.5373 16.269 83.5838 15.6123 83.4559L15.9103 81.925C16.2742 81.9959 16.6096 81.9678 16.9165 81.8409C17.2201 81.709 17.4781 81.4987 17.6906 81.2101C17.903 80.9216 18.0488 80.5744 18.1278 80.1687C18.2149 79.7211 18.1949 79.3222 18.0678 78.9718C17.9406 78.6214 17.711 78.3293 17.3788 78.0953C17.0433 77.8563 16.6099 77.6851 16.0787 77.5817L6.89326 75.7933Z" fill="#D1CABA"/>
<path d="M20.8111 73.3597L8.45407 69.0382L11.0621 61.5806L12.3896 62.0448L10.3048 68.0061L14.4801 69.4663L16.4298 63.8911L17.7573 64.3553L15.8075 69.9305L20.007 71.3991L22.1255 65.3413L23.453 65.8055L20.8111 73.3597Z" fill="#D1CABA"/>
<path d="M21.7017 49.415L20.9309 50.8002C20.4869 50.6604 20.0571 50.609 19.6415 50.6459C19.228 50.6792 18.838 50.784 18.4716 50.9605C18.1035 51.1312 17.77 51.3626 17.4709 51.6546C17.1719 51.9466 16.9167 52.2825 16.7053 52.6623C16.3199 53.3549 16.1458 54.0797 16.1829 54.8368C16.2222 55.5901 16.4903 56.3221 16.9873 57.0327C17.4864 57.7395 18.2312 58.3685 19.2217 58.9197C20.2122 59.4709 21.1393 59.7722 22.0031 59.8237C22.8689 59.8715 23.6323 59.7135 24.2931 59.3497C24.956 58.9822 25.4802 58.4522 25.8656 57.7596C26.0769 57.3798 26.2279 56.9858 26.3184 56.5778C26.4089 56.1697 26.4315 55.7654 26.3863 55.3647C26.3394 54.9582 26.221 54.5705 26.0313 54.2016C25.8399 53.8269 25.5697 53.4887 25.2206 53.1872L25.9914 51.802C26.518 52.2316 26.9355 52.7126 27.2439 53.2451C27.5523 53.7776 27.7545 54.3387 27.8505 54.9286C27.9428 55.5164 27.9308 56.112 27.8145 56.7154C27.7003 57.3151 27.4826 57.9035 27.1614 58.4806C26.6185 59.4563 25.8974 60.1913 24.9981 60.6857C24.0988 61.1801 23.0885 61.4006 21.9673 61.3473C20.8461 61.2939 19.6822 60.9316 18.4757 60.2602C17.2693 59.5889 16.3479 58.7909 15.7115 57.8662C15.0751 56.9415 14.73 55.9668 14.6761 54.9419C14.6221 53.9171 14.8666 52.9168 15.4095 51.9412C15.7307 51.364 16.1159 50.8689 16.5653 50.4557C17.0167 50.0388 17.5184 49.7157 18.0703 49.4863C18.6184 49.2549 19.2001 49.1299 19.8151 49.1113C20.4265 49.0906 21.0553 49.1918 21.7017 49.415Z" fill="#D1CABA"/>
<path d="M22.2812 43.5532L21.1941 42.6611L27.4228 35.0716L28.5098 35.9637L25.8983 39.1458L34.9306 46.5585L33.925 47.7839L24.8927 40.3712L22.2812 43.5532Z" fill="#D1CABA"/>
<path d="M41.75 31.6387L40.0776 29.3752L39.1577 32.0367L38.0086 31.5791L39.156 28.9979L36.3837 29.5392L36.1946 28.3169L38.9944 28.0153L37.162 25.8792L38.1219 25.1145L39.7943 27.3781L40.7142 24.7166L41.8633 25.1742L40.7159 27.7553L43.4882 27.214L43.6774 28.4363L40.8776 28.738L42.71 30.8741L41.75 31.6387Z" fill="#D1CABA"/>
<path d="M58.236 13.0077L63.9131 24.8035L62.5308 25.4688L51.6456 19.3008L51.5304 19.3562L55.9878 28.6178L54.5594 29.3053L48.8823 17.5094L50.2646 16.8441L61.184 23.0241L61.2991 22.9687L56.8307 13.684L58.236 13.0077Z" fill="#D1CABA"/>
<path d="M67.6675 23.3047L64.1 10.7092L71.7015 8.55619L72.0848 9.90921L66.0084 11.6303L67.2139 15.8861L72.8966 14.2766L73.2798 15.6296L67.5971 17.2392L68.8095 21.5196L74.9842 19.7707L75.3675 21.1237L67.6675 23.3047Z" fill="#D1CABA"/>
<path d="M80.4541 19.9086L75.8763 7.13251L77.4823 7.00837L81.0317 17.4277L81.1592 17.4179L83.1161 6.57288L84.9005 6.43494L88.5009 16.8504L88.6284 16.8405L90.5343 5.99945L92.1403 5.87531L89.5803 19.2032L87.9488 19.3293L84.2642 9.15115L84.1623 9.15903L82.0856 19.7825L80.4541 19.9086Z" fill="#D1CABA"/>
<path d="M102.294 19.6418L104.894 6.81168L109.229 7.69017C110.236 7.89413 111.022 8.24254 111.587 8.73538C112.158 9.22489 112.535 9.80793 112.72 10.4845C112.904 11.1611 112.92 11.8773 112.767 12.6333C112.614 13.3892 112.32 14.0449 111.886 14.6004C111.456 15.1568 110.884 15.5539 110.17 15.792C109.458 16.0258 108.602 16.0416 107.604 15.8394L104.497 15.2097L104.776 13.8315L107.833 14.451C108.522 14.5906 109.1 14.5837 109.566 14.4303C110.032 14.2769 110.4 14.0167 110.67 13.6496C110.945 13.2793 111.134 12.8372 111.238 12.3235C111.342 11.8098 111.339 11.3309 111.229 10.8869C111.124 10.4437 110.883 10.0645 110.508 9.7493C110.133 9.42993 109.597 9.19959 108.9 9.05825L106.168 8.50475L103.848 19.9566L102.294 19.6418Z" fill="#D1CABA"/>
<path d="M114.398 22.2634L119.089 10.0418L123.218 11.6267C124.173 11.9932 124.894 12.4571 125.382 13.0185C125.871 13.5759 126.154 14.1935 126.231 14.8715C126.309 15.5494 126.21 16.2484 125.933 16.9685C125.657 17.6886 125.265 18.2706 124.756 18.7146C124.248 19.1586 123.629 19.4229 122.898 19.5076C122.169 19.5882 121.331 19.4469 120.384 19.0835L117.042 17.8008L117.555 16.4641L120.849 17.7284C121.501 17.9788 122.063 18.0849 122.534 18.0466C123.009 18.0099 123.404 17.8508 123.717 17.5694C124.036 17.2856 124.289 16.899 124.477 16.4096C124.665 15.9203 124.738 15.4575 124.695 15.0212C124.653 14.585 124.469 14.1903 124.143 13.8372C123.819 13.48 123.327 13.1747 122.667 12.9213L120.065 11.9227L115.878 22.8314L114.398 22.2634ZM122.258 18.9812L123.158 25.6257L121.44 24.9661L120.587 18.3399L122.258 18.9812Z" fill="#D1CABA"/>
<path d="M138.491 26.7651C137.776 27.946 136.944 28.8374 135.997 29.4393C135.049 30.0411 134.063 30.3501 133.036 30.3663C132.01 30.3824 131.02 30.1013 130.065 29.5229C129.11 28.9444 128.402 28.1967 127.941 27.2798C127.48 26.3629 127.297 25.3452 127.391 24.2267C127.486 23.1082 127.891 21.9585 128.606 20.7775C129.322 19.5966 130.153 18.7052 131.1 18.1033C132.048 17.5015 133.035 17.1924 134.061 17.1763C135.087 17.1601 136.078 17.4413 137.033 18.0197C137.988 18.5982 138.695 19.3459 139.156 20.2628C139.617 21.1797 139.801 22.1974 139.706 23.3159C139.611 24.4344 139.206 25.5841 138.491 26.7651ZM137.179 25.9702C137.766 25.0007 138.1 24.0842 138.179 23.2207C138.263 22.3594 138.133 21.5908 137.79 20.9148C137.451 20.241 136.942 19.6988 136.264 19.2881C135.586 18.8775 134.868 18.6768 134.111 18.686C133.356 18.6975 132.615 18.9384 131.886 19.409C131.162 19.8817 130.506 20.6028 129.918 21.5723C129.331 22.5419 128.996 23.4573 128.913 24.3186C128.833 25.1821 128.963 25.9507 129.302 26.6245C129.645 27.3005 130.155 27.8438 130.833 28.2545C131.511 28.6651 132.227 28.8647 132.981 28.8533C133.739 28.844 134.481 28.603 135.205 28.1303C135.934 27.6598 136.592 26.9398 137.179 25.9702Z" fill="#D1CABA"/>
<path d="M150.244 27.8004L151.447 28.8325L145.354 35.9349C144.81 36.5689 144.231 37.0075 143.618 37.2508C143.005 37.4941 142.388 37.5488 141.768 37.415C141.147 37.2811 140.549 36.9672 139.973 36.4734C139.43 36.0072 139.031 35.4937 138.777 34.933C138.525 34.369 138.436 33.7986 138.51 33.2218C138.583 32.6449 138.838 32.1027 139.274 31.5949L140.457 32.6104C140.216 32.8918 140.075 33.1973 140.033 33.5268C139.998 33.8559 140.053 34.1841 140.199 34.5114C140.345 34.8387 140.575 35.1369 140.889 35.4061C141.235 35.7029 141.592 35.8827 141.959 35.9452C142.327 36.0078 142.694 35.9525 143.062 35.7793C143.435 35.6057 143.798 35.3135 144.15 34.9028L150.244 27.8004Z" fill="#D1CABA"/>
<path d="M145.455 41.0624L155.297 32.4307L160.506 38.3705L159.449 39.2977L155.285 34.5497L151.959 37.4663L155.854 41.9067L154.797 42.834L150.902 38.3935L147.557 41.327L151.789 46.1519L150.732 47.0791L145.455 41.0624Z" fill="#D1CABA"/>
<path d="M166.021 53.8347L165.195 52.4818C165.535 52.1642 165.792 51.8154 165.964 51.4354C166.139 51.0591 166.239 50.6681 166.266 50.2622C166.299 49.8578 166.261 49.4536 166.155 49.0496C166.048 48.6455 165.881 48.258 165.654 47.8871C165.241 47.2106 164.696 46.7023 164.019 46.3619C163.344 46.0252 162.574 45.8982 161.711 45.981C160.85 46.0675 159.936 46.4061 158.969 46.997C158.001 47.5878 157.283 48.2465 156.813 48.973C156.345 49.7031 156.107 50.4453 156.098 51.1996C156.091 51.9575 156.295 52.6747 156.708 53.3512C156.934 53.7221 157.203 54.0474 157.514 54.3271C157.824 54.6067 158.165 54.8255 158.536 54.9833C158.913 55.1426 159.309 55.2305 159.723 55.247C160.144 55.2648 160.571 55.1961 161.005 55.0406L161.832 56.3935C161.199 56.6404 160.574 56.767 159.959 56.7733C159.344 56.7796 158.756 56.6793 158.195 56.4726C157.638 56.2635 157.125 55.9599 156.657 55.5616C156.192 55.167 155.787 54.6878 155.442 54.1241C154.86 53.1713 154.576 52.1818 154.588 51.1556C154.6 50.1294 154.906 49.1415 155.504 48.1918C156.103 47.2421 156.991 46.4074 158.169 45.6877C159.347 44.9681 160.496 44.5589 161.614 44.4602C162.732 44.3615 163.75 44.5409 164.669 44.9985C165.588 45.4561 166.338 46.1613 166.92 47.1141C167.264 47.6778 167.505 48.2569 167.644 48.8515C167.785 49.4496 167.819 50.0454 167.747 50.6386C167.678 51.2297 167.501 51.7975 167.214 52.342C166.931 52.8844 166.534 53.3819 166.021 53.8347Z" fill="#D1CABA"/>
<path d="M170.725 56.9919L172.036 56.4831L175.588 65.6361L174.277 66.1449L172.788 62.3073L161.895 66.535L161.321 65.0572L172.214 60.8295L170.725 56.9919Z" fill="#D1CABA"/>
<path d="M171.512 79.7497L174.305 79.4086L172.442 77.2975L173.406 76.5226L175.087 78.7922L175.981 76.1127L177.138 76.5499L176.022 79.1353L178.784 78.5922L178.977 79.8042L176.183 80.1453L178.047 82.2564L177.083 83.0313L175.401 80.7617L174.507 83.4412L173.35 83.004L174.466 80.4186L171.705 80.9617L171.512 79.7497Z" fill="#D1CABA"/>
</svg>
